<svg xmlns="http://www.w3.org/2000/svg" viewBox="0 0 1600 1000" width="1600" height="1000">
  <defs>
    <linearGradient id="bg" x1="0" y1="0" x2="1" y2="1">
      <stop offset="0" stop-color="#241812"/><stop offset="1" stop-color="#140d0a"/>
    </linearGradient>
    <radialGradient id="glowA" cx="22%" cy="20%" r="55%">
      <stop offset="0" stop-color="#E23B2E" stop-opacity="0.30"/><stop offset="1" stop-color="#E23B2E" stop-opacity="0"/>
    </radialGradient>
    <radialGradient id="glowB" cx="82%" cy="82%" r="55%">
      <stop offset="0" stop-color="#F7A531" stop-opacity="0.26"/><stop offset="1" stop-color="#F7A531" stop-opacity="0"/>
    </radialGradient>
    <linearGradient id="cupA" x1="0" y1="0" x2="0" y2="1">
      <stop offset="0" stop-color="#F7A531"/><stop offset="0.55" stop-color="#E23B2E"/><stop offset="1" stop-color="#9E171A"/>
    </linearGradient>
    <linearGradient id="cupB" x1="0" y1="0" x2="0" y2="1">
      <stop offset="0" stop-color="#FFD166"/><stop offset="0.55" stop-color="#F7A531"/><stop offset="1" stop-color="#B2191C"/>
    </linearGradient>
    <linearGradient id="cupC" x1="0" y1="0" x2="0" y2="1">
      <stop offset="0" stop-color="#57C6B8"/><stop offset="0.6" stop-color="#2A9D8F"/><stop offset="1" stop-color="#14655C"/>
    </linearGradient>
    <linearGradient id="lid" x1="0" y1="0" x2="1" y2="0">
      <stop offset="0" stop-color="#FFE8B0"/><stop offset="1" stop-color="#FFD166"/>
    </linearGradient>
    <pattern id="dots" width="42" height="42" patternUnits="userSpaceOnUse">
      <circle cx="3" cy="3" r="2.4" fill="#FFFFFF" opacity="0.05"/>
    </pattern>
    <filter id="soft" x="-30%" y="-30%" width="160%" height="160%">
      <feDropShadow dx="0" dy="16" stdDeviation="22" flood-color="#000000" flood-opacity="0.45"/>
    </filter>
  </defs><rect width="1600" height="1000" fill="url(#bg)"/><rect width="1600" height="1000" fill="url(#dots)"/><rect width="1600" height="1000" fill="url(#glowA)"/><rect width="1600" height="1000" fill="url(#glowB)"/><rect x="1330" y="150" width="250" height="200" rx="20" fill="#2b1d16" opacity="0.9" stroke="#ffffff" stroke-opacity="0.10"/><rect x="1362" y="260" width="36" height="70" rx="8" fill="#F7A531"/><rect x="1412" y="200" width="36" height="130" rx="8" fill="#FFD166"/><rect x="1462" y="235" width="36" height="95" rx="8" fill="#F7A531"/><rect x="1512" y="165" width="36" height="165" rx="8" fill="#FFD166"/><path d="M1370 300 L1560 215" stroke="#2A9D8F" stroke-width="5" fill="none" stroke-dasharray="8 8"/><circle cx="1370" cy="300" r="8" fill="#2A9D8F"/><circle cx="1432" cy="292" r="8" fill="#2A9D8F"/><circle cx="1494" cy="268" r="8" fill="#2A9D8F"/><circle cx="1556" cy="228" r="8" fill="#2A9D8F"/><rect x="1370" y="620" width="230" height="200" rx="20" fill="#2b1d16" opacity="0.9" stroke="#ffffff" stroke-opacity="0.10"/><circle cx="1412" cy="680" r="10" fill="#E23B2E" opacity="0.95"/><circle cx="1484" cy="680" r="10" fill="#F7A531" opacity="0.95"/><circle cx="1556" cy="680" r="10" fill="#F7A531" opacity="0.95"/><circle cx="1412" cy="732" r="10" fill="#E23B2E" opacity="0.95"/><circle cx="1484" cy="732" r="10" fill="#F7A531" opacity="0.95"/><circle cx="1556" cy="732" r="10" fill="#F7A531" opacity="0.95"/><circle cx="1412" cy="784" r="10" fill="#E23B2E" opacity="0.95"/><circle cx="1484" cy="784" r="10" fill="#F7A531" opacity="0.95"/><circle cx="1556" cy="784" r="10" fill="#F7A531" opacity="0.95"/><g transform="translate(990,200) scale(1.25)" stroke="#FDF6EC" stroke-width="12" stroke-linecap="round" fill="none" opacity="0.85"><path d="M-60 0 C-90 -45 -20 -60 -50 -110"/><path d="M20 6 C-10 -40 60 -55 30 -110"/><path d="M100 0 C70 -45 140 -60 110 -110"/></g><g transform="translate(800,600) rotate(-4) scale(0.9)" filter="url(#soft)"><path d="M-150 40 L150 40 L116 300 Q113 322 90 322 L-90 322 Q-113 322 -116 300 Z" fill="url(#cupC)"/><rect x="-150" y="18" width="300" height="52" rx="14" fill="#FDF6EC" opacity="0.92"/><rect x="-104" y="120" width="208" height="120" rx="26" fill="#FDF6EC" opacity="0.16"/><g stroke="#FFD166" stroke-width="13" stroke-linecap="round" fill="none" opacity="0.95"><path d="M-80 130 q60 -55 120 0 q60 55 120 0"/><path d="M-80 180 q60 -55 120 0 q60 55 120 0"/><path d="M-70 230 q55 -48 110 0 q55 48 110 0"/></g><ellipse cx="0" cy="40" rx="164" ry="30" fill="url(#lid)"/><ellipse cx="0" cy="40" rx="164" ry="30" fill="none" stroke="#B2191C" stroke-opacity="0.25" stroke-width="4"/></g><g transform="translate(990,520) rotate(0) scale(1.25)" filter="url(#soft)"><path d="M-150 40 L150 40 L116 300 Q113 322 90 322 L-90 322 Q-113 322 -116 300 Z" fill="url(#cupA)"/><rect x="-150" y="18" width="300" height="52" rx="14" fill="#FDF6EC" opacity="0.92"/><rect x="-104" y="120" width="208" height="120" rx="26" fill="#FDF6EC" opacity="0.16"/><g stroke="#FFD166" stroke-width="13" stroke-linecap="round" fill="none" opacity="0.95"><path d="M-80 130 q60 -55 120 0 q60 55 120 0"/><path d="M-80 180 q60 -55 120 0 q60 55 120 0"/><path d="M-70 230 q55 -48 110 0 q55 48 110 0"/></g><ellipse cx="0" cy="40" rx="164" ry="30" fill="url(#lid)"/><ellipse cx="0" cy="40" rx="164" ry="30" fill="none" stroke="#B2191C" stroke-opacity="0.25" stroke-width="4"/></g><g transform="translate(1170,640) rotate(5) scale(0.85)" filter="url(#soft)"><path d="M-150 40 L150 40 L116 300 Q113 322 90 322 L-90 322 Q-113 322 -116 300 Z" fill="url(#cupB)"/><rect x="-150" y="18" width="300" height="52" rx="14" fill="#FDF6EC" opacity="0.92"/><rect x="-104" y="120" width="208" height="120" rx="26" fill="#FDF6EC" opacity="0.16"/><g stroke="#FFD166" stroke-width="13" stroke-linecap="round" fill="none" opacity="0.95"><path d="M-80 130 q60 -55 120 0 q60 55 120 0"/><path d="M-80 180 q60 -55 120 0 q60 55 120 0"/><path d="M-70 230 q55 -48 110 0 q55 48 110 0"/></g><ellipse cx="0" cy="40" rx="164" ry="30" fill="url(#lid)"/><ellipse cx="0" cy="40" rx="164" ry="30" fill="none" stroke="#B2191C" stroke-opacity="0.25" stroke-width="4"/></g><g transform="rotate(16 1560 300)"><rect x="1520" y="40" width="22" height="470" rx="11" fill="#8B5E3C"/><rect x="1570" y="40" width="22" height="470" rx="11" fill="#A9744F"/></g></svg>